<?xml version="1.0" encoding="utf-8"?>
<!-- Generator: Adobe Illustrator 16.0.0, SVG Export Plug-In . SVG Version: 6.00 Build 0)  -->
<!DOCTYPE svg PUBLIC "-//W3C//DTD SVG 1.1//EN" "http://www.w3.org/Graphics/SVG/1.1/DTD/svg11.dtd">
<svg version="1.1" id="圖層_1" xmlns="http://www.w3.org/2000/svg" xmlns:xlink="http://www.w3.org/1999/xlink" x="0px" y="0px"
	 width="379px" height="54px" viewBox="0 0 379 54" enable-background="new 0 0 379 54" xml:space="preserve">
<g>
	<path fill="#3C394F" stroke="#3C394F" stroke-width="0.25" stroke-miterlimit="10" d="M313.322,29.133l0.762,1.34
		c-2.262,0.727-4.682,1.403-7.254,2.027c-0.255-0.551-0.529-1.033-0.829-1.449C308.335,30.53,310.774,29.893,313.322,29.133z
		 M311.39,14.601c0.254,0.52,0.528,0.988,0.825,1.404c-2.219,1.561-3.974,2.832-5.26,3.811l-0.933-1.448
		C308.001,17.149,309.79,15.894,311.39,14.601z M308.058,10.632c1.289,0.758,2.47,1.501,3.543,2.229l-1.082,1.226
		c-0.947-0.712-2.078-1.5-3.395-2.363L308.058,10.632z M308.441,19.838h15.528v9.408h-1.612V28.62h-12.303v0.67h-1.613V19.838
		L308.441,19.838z M322.357,21.087h-12.303v1.337h12.303V21.087z M310.054,24.898h12.303v-1.359h-12.303V24.898z M310.054,27.374
		h12.303v-1.36h-12.303V27.374z M311.517,18.123c4.002-0.728,6.301-2.341,6.896-4.838h-3.015c-0.551,1.145-1.209,2.191-1.972,3.143
		c-0.454-0.281-0.927-0.564-1.422-0.847c1.316-1.471,2.284-3.158,2.907-5.06h1.569c-0.155,0.505-0.325,0.996-0.51,1.471h9.694v1.249
		l-1.441,2.674c-0.481-0.208-0.998-0.408-1.549-0.602l1.124-2.028h-3.839c-0.071,0.372-0.162,0.728-0.277,1.07
		c1.219,1.933,3.487,3.203,6.812,3.812c-0.354,0.476-0.692,0.996-1.017,1.561c-2.915-0.728-5.072-2.073-6.474-4.034
		c-1.202,1.874-3.339,3.165-6.406,3.878C312.343,19.096,311.984,18.612,311.517,18.123z M318.05,30.449l0.7-1.249
		c2.36,0.507,4.852,1.123,7.468,1.851l-0.511,1.449C322.528,31.578,319.974,30.895,318.05,30.449z"/>
	<path fill="#3C394F" stroke="#3C394F" stroke-width="0.25" stroke-miterlimit="10" d="M336.411,15.292h-7.51v-1.516h3.691
		c-0.481-0.966-0.962-1.805-1.441-2.518l1.271-0.758c0.579,0.877,1.097,1.724,1.549,2.541l-1.146,0.735h3.584L336.411,15.292
		L336.411,15.292z M329.454,32.12v-8.002h6.555v7.869h-1.422v-0.982h-3.713v1.114L329.454,32.12L329.454,32.12z M335.797,18.747
		h-6.216V17.23h6.216V18.747z M335.818,22.157h-6.238v-1.494h6.238V22.157z M334.588,25.635h-3.713v3.855h3.713V25.635z
		 M336.539,20.329h3.075v-6.932h-2.95v-1.65h9.783v5.306c-0.016,3.834,0.085,6.903,0.296,9.207c0.284,2.466,0.65,3.701,1.104,3.701
		c0.225,0,0.381-0.408,0.466-1.227c0.071-0.716,0.114-1.798,0.128-3.255c0.495,0.238,0.947,0.425,1.359,0.558
		c-0.03,1.888-0.158,3.343-0.384,4.369c-0.283,1.086-0.764,1.627-1.442,1.627c-1.428,0-2.333-1.724-2.716-5.171
		c-0.24-2.169-0.354-5.438-0.339-9.808v-3.655h-3.775v6.932h3.074v1.651h-3.074v10.453h-1.529V21.979h-3.075V20.329z"/>
	<path fill="#3C394F" stroke="#3C394F" stroke-width="0.25" stroke-miterlimit="10" d="M353.966,26.905
		c-0.283,1.842-0.63,3.499-1.039,4.971l-1.357-0.424c0.495-1.353,0.863-2.957,1.102-4.814L353.966,26.905z M353.543,17.565
		c0.522,0,1.271-0.016,2.25-0.046c0.494-0.951,0.989-1.975,1.485-3.075l1.42,0.758c-1.472,2.705-3.048,5.365-4.731,7.981
		c0.977-0.104,1.995-0.215,3.057-0.334c-0.197-0.713-0.398-1.42-0.596-2.118l1.231-0.401c0.552,1.576,0.997,3.062,1.338,4.458
		l-1.359,0.469c-0.083-0.343-0.169-0.677-0.252-1.004c-2.264,0.253-3.954,0.513-5.071,0.781l-0.361-1.694
		c1.006-1.1,2.022-2.557,3.056-4.371c-1.217,0.075-2.144,0.187-2.779,0.335l-0.445-1.471c1.032-1.545,2.149-3.938,3.351-7.178
		l1.507,0.58C355.353,14.014,354.321,16.125,353.543,17.565z M355.792,26.526c0.281,1.828,0.48,3.336,0.593,4.525l-1.314,0.245
		c-0.042-1.086-0.177-2.615-0.403-4.591L355.792,26.526z M357.935,25.991c0.41,1.442,0.75,2.766,1.02,3.968l-1.359,0.355
		c-0.269-1.708-0.538-3.054-0.805-4.034L357.935,25.991z M360.734,32.345h-1.441V11.747H372V29.69c0,1.649-0.757,2.475-2.271,2.475
		c-0.636,0-1.457-0.029-2.458-0.09c-0.045-0.535-0.108-1.1-0.192-1.694c1.018,0.136,1.782,0.202,2.29,0.202
		c0.791,0,1.189-0.365,1.189-1.094V13.263h-9.824V32.345z M361.329,21.778h8.613v1.494h-5.771v3.521h5.178v1.471h-6.62v-4.993
		h-1.399L361.329,21.778L361.329,21.778z M361.349,17.342h4.479c0.777-1.5,1.328-2.66,1.654-3.477l1.422,0.713
		c-0.494,0.892-1.025,1.813-1.59,2.764h2.63v1.471h-8.593v-1.471H361.349z M362.283,14.51l1.251-0.646
		c0.678,1.04,1.188,1.924,1.527,2.652l-1.313,0.735C363.38,16.361,362.892,15.448,362.283,14.51z M364.447,19.482l1.232-0.558
		c0.255,0.461,0.623,1.197,1.104,2.207l-1.316,0.603C365.154,20.886,364.818,20.136,364.447,19.482z"/>
</g>
<g>
	<path fill="#1DAA22" d="M95.297,32.725H94c1.558-1.554,2.336-3.924,2.336-7.121V11.5h5.712v2.601
		c0.69-1.917,2.509-2.783,5.452-2.601h17.265v1.506H107.89c-3.03-0.182-4.978,0.547-5.842,2.19v10.543
		C102.22,30.671,99.971,32.998,95.297,32.725z M125.283,4.792H94.649v-1.37h12.592V0.137h6.75v3.286h11.292V4.792z M99.451,5.751
		h6.232c0.172,0.914,0.52,1.69,1.038,2.328c0.346,0.732,1.124,1.369,2.337,1.917c0.084,0.091,0.129,0.184,0.129,0.274
		c0,0.092-0.044,0.137-0.129,0.137c-0.779,0-1.558,0-2.337,0C102.307,10.954,99.885,9.403,99.451,5.751z M105.034,14.651h4.544
		c-0.261,1.279-0.519,2.556-0.779,3.833h3.115v-4.107h5.063v4.107h6.88v1.369h-6.88v4.656h6.231v1.37h-6.231v4.792h7.66v1.369
		h-22.329v-1.369h9.606v-4.792h-7.79v-1.37h7.79v-4.656h-3.506c-0.433,2.101-2.553,2.923-6.359,2.465
		C103.172,21.498,104.167,18.942,105.034,14.651z M115.03,5.751h6.231c-0.605,3.561-3.029,5.113-7.269,4.656
		c-0.867,0-1.603,0-2.207,0c-0.174,0-0.305-0.044-0.39-0.137c0-0.09,0.085-0.183,0.26-0.274c0.952-0.364,1.643-0.911,2.078-1.643
		C114.164,7.897,114.596,7.029,115.03,5.751z"/>
	<path fill="#1DAA22" d="M136.48,24.919h4.932V23.14h-11.813v-1.369h11.813v-3.423h-9.735v-1.369h9.735V13.83h-11.683v-1.37h29.078
		v1.37h-11.683v3.149h9.736v1.369h-9.736v3.423h11.813v1.369h-11.813v1.78h4.933c2.681,3.652,5.324,6.116,7.92,7.395
		c-3.376,0.183-5.669,0.136-6.881-0.137c-1.213-0.185-2.12-0.732-2.726-1.644c-0.433-0.641-0.866-1.188-1.296-1.644
		c-0.955-1.096-1.603-2.006-1.949-2.738V33h-5.712v-6.847c-0.954,1.368-2.077,2.828-3.375,4.382
		c-0.604,0.911-1.514,1.459-2.726,1.644c-1.213,0.272-3.462,0.319-6.75,0.137C131.07,31.035,133.709,28.572,136.48,24.919z
		 M158.806,7.941h-29.078V6.572h9.348v-1.37c-4.848,0.731-7.445-0.364-7.79-3.286h5.323c0.518,1.553,1.339,2.602,2.467,3.148V0.821
		h4.413v5.751h1.559v-5.75h4.414v4.244c0.951-0.547,1.772-1.596,2.466-3.148h5.322c-0.433,2.922-3.029,4.018-7.789,3.286v1.37h9.346
		L158.806,7.941L158.806,7.941z M133.365,8.626h6.75c0.777,1.369,1.902,2.375,3.374,3.013
		C137.17,12.278,133.795,11.274,133.365,8.626z M148.422,8.626h6.75c-0.519,2.648-3.893,3.652-10.125,3.013
		C146.429,11,147.556,9.995,148.422,8.626z"/>
	<path fill="#1DAA22" d="M181.684,0.137h4.804c-0.175,0.366-0.304,0.732-0.39,1.095c-0.087,0.548-0.175,0.913-0.26,1.095h8.047
		v1.369h-8.567c-0.175,0.366-0.348,0.777-0.519,1.233c-0.174,0.548-0.304,0.958-0.39,1.232c-0.694,2.375-2.856,3.241-6.491,2.602
		c-3.635,0.366-5.669-0.182-6.101-1.644c-0.26-0.182-0.564-0.685-0.909-1.506c-0.174-0.274-0.305-0.548-0.39-0.821
		c-0.175,0.273-0.305,0.595-0.39,0.958c-0.175,0.366-0.306,0.64-0.39,0.822c-0.779,1.917-3.115,2.648-7.011,2.19
		c0.78-0.822,1.47-1.78,2.077-2.876c0.691-1.459,1.47-3.375,2.336-5.751h5.193c-0.26,0.822-0.519,1.506-0.779,2.054h8.048v1.506
		h-8.568c-0.087,0.184-0.174,0.366-0.26,0.548c-0.086,0.184-0.13,0.321-0.13,0.411h4.673c0.691,1.827,1.559,3.149,2.597,3.971
		C178.785,7.714,180.039,4.884,181.684,0.137z M164.81,27.11V9.995h4.802v1.095c0.432-0.638,1.125-0.958,2.078-0.958h3.374
		c2.509,0,3.766,1.279,3.766,3.834v4.792c0,2.465-1.299,3.607-3.896,3.423h-2.726c-1.645,0.092-2.511-0.729-2.596-2.464v6.435
		c-0.174,2.101,0.215,3.058,1.168,2.875c0.952,0,1.949-0.5,2.986-1.507c-0.694-1.458-1.126-2.782-1.299-3.97h4.545
		c0.518,1.735,1.038,3.241,1.557,4.518c0.345,0.639,0.734,1.186,1.169,1.644V9.858h5.063V11.5c0.172-1.003,0.951-1.505,2.336-1.505
		h2.597c1.99,0.184,3.071,1.417,3.245,3.697v14.65c-0.174,1.826-1.386,2.829-3.635,3.013c-1.993-0.273-3.375-1.368-4.153-3.286
		c0.778,0.366,1.427,0.503,1.946,0.411c0.605,0.092,0.91-0.319,0.91-1.233V13.146c-0.088-0.911-0.433-1.416-1.039-1.506h-0.65
		c-0.693,0.091-1.213,0.595-1.557,1.506v19.717h-5.063v-2.738c-3.463,0.273-5.323-0.274-5.582-1.644
		c-0.174,0.092-0.218,0.047-0.13-0.138c-1.126,2.555-2.856,3.879-5.193,3.972C165.978,32.404,164.635,30.671,164.81,27.11z
		 M169.612,12.734v2.739h4.544v-1.644c0-1.551-0.389-2.281-1.168-2.19h-2.077C170.391,11.639,169.957,12.004,169.612,12.734z
		 M174.156,18.347v-1.506h-4.544v1.779c0.26,1.462,0.821,2.146,1.688,2.055h1.688C173.767,20.767,174.156,19.992,174.156,18.347z
		 M185.191,4.381h4.801c0.864,1.736,1.992,3.149,3.375,4.246c-3.808,0.458-6.016-0.046-6.621-1.506
		c-0.086-0.09-0.217-0.274-0.39-0.548C186.185,6.298,185.794,5.568,185.191,4.381z"/>
	<path fill="#1DAA22" d="M203.265,0h5.452c-0.434,0.548-1.039,1.279-1.818,2.19c-1.992,2.375-3.202,3.927-3.635,4.656
		c-0.519,0.822-0.649,1.461-0.39,1.917c0.26,0.458,0.91,0.639,1.947,0.548c1.298,0.092,2.77-0.137,4.413-0.685
		c-0.952-2.281-1.644-4.018-2.076-5.204h4.673c0.691,1.735,1.341,3.242,1.948,4.519c0.084,0.275,0.259,0.686,0.518,1.233
		c0.52,1.279,0.951,2.1,1.299,2.464c-3.203,0.547-5.193-0.274-5.973-2.464c-1.818,1.553-4.413,2.374-7.789,2.464
		c-3.722-0.456-4.717-2.372-2.984-5.751c0.603-0.911,1.729-2.417,3.375-4.518C202.572,0.822,202.918,0.366,203.265,0z
		 M203.914,32.862h-4.933V12.734h4.933v2.464c0.26-1.552,1.298-2.373,3.116-2.464h2.335c3.114,0,4.673,1.369,4.673,4.107v11.501
		c0.085,3.103-1.342,4.609-4.283,4.519c-2.337-0.092-4.284-1.231-5.842-3.425L203.914,32.862L203.914,32.862z M203.914,16.295v2.601
		h5.321v-1.917c0.086-1.917-0.692-2.827-2.336-2.738h-0.259C205.082,14.151,204.174,14.835,203.914,16.295z M203.914,20.265v4.107
		h5.321v-4.107H203.914z M209.236,27.11v-1.506h-5.321v3.833c0.951,0.365,2.076,0.549,3.375,0.549
		C208.672,30.076,209.322,29.118,209.236,27.11z M224.944,15.062h-4.543c-3.031,0.092-4.502-1.551-4.414-4.93V0.137h4.933v7.394
		c1.123-1.095,2.249-3.012,3.374-5.751h4.546c-0.262,0.458-0.521,1.051-0.78,1.78c-0.778,1.735-1.385,2.922-1.817,3.561
		c-0.605,1.279-2.381,1.78-5.322,1.506v2.19c-0.175,2.101,0.475,3.059,1.946,2.875h1.948c1.989,0.366,3.33-1.688,4.025-6.162
		C229.357,13.1,228.059,15.609,224.944,15.062z M225.203,32.45h-4.544c-2.943,0-4.372-1.597-4.284-4.791v-12.05h4.673v8.353
		c0.863-1.185,2.032-3.331,3.504-6.436h4.415c-0.693,1.644-1.515,3.561-2.467,5.751c-0.52,1.37-2.336,2.01-5.451,1.917v3.287
		c-0.088,1.644,0.562,2.465,1.947,2.465h2.077c1.991,0.274,3.331-1.691,4.024-5.888C229.529,30.35,228.231,32.814,225.203,32.45z"/>
	<path fill="#1DAA22" d="M237.048,32.041h-4.673c0.085-1.095,0.215-2.604,0.39-4.52c0.084-2.006,0.215-3.559,0.391-4.655
		c0-4.29,2.161-6.344,6.488-6.162c-1.037,1.644-1.687,3.561-1.945,5.752c-0.089,0.184-0.132,0.458-0.132,0.821
		C237.305,26.016,237.131,28.937,237.048,32.041z M233.022,0.958h4.416c0.085,4.292,0.302,7.441,0.646,9.447
		c0.263,1.644,0.735,2.831,1.43,3.561c-4.067,0.184-6.102-1.096-6.102-3.834C233.154,7.12,233.022,4.062,233.022,0.958z
		 M260.024,10.543h3.895c-0.867,5.752-1.646,9.723-2.336,11.914c-0.52,2.009-1.215,3.378-2.078,4.107
		c0.346,1.643,0.863,2.464,1.558,2.464c0.951,0.09,1.772-1.095,2.467-3.56c0.085,5.203-1.126,7.667-3.636,7.395
		c-2.077-0.092-3.332-1.231-3.765-3.424c0-0.366-0.088-0.729-0.26-1.095c0-0.183,0-0.363,0-0.547c-0.177,0-0.391,0.047-0.65,0.138
		c-0.258,0.091-0.434,0.091-0.519,0c-0.347,0-0.562-0.047-0.648-0.138c0-0.091,0.173-0.274,0.52-0.549
		c0.346-0.089,0.734-0.364,1.167-0.822c-0.433-2.646-1.038-7.165-1.817-13.555c-0.345-2.646-0.562-4.701-0.648-6.162h-5.451
		c-2.077,0-3.332,0.502-3.765,1.507v17.937c0.346,4.744-1.516,6.892-5.582,6.436c0.433-0.639,0.734-1.461,0.908-2.464
		c0.26-0.822,0.39-2.373,0.39-4.656V4.245h4.285v3.012c0.346-1.369,1.512-2.054,3.506-2.054h5.32l-1.816-4.929h4.285l1.816,4.929
		h6.361v1.506h-6.101c0.343,4.199,0.778,8.399,1.296,12.597C259.158,16.934,259.59,14.014,260.024,10.543z M253.533,11.775h-8.697
		v-1.369h8.697V11.775z M248.73,30.809h-3.375V15.062h3.375v0.958c0.174-0.547,0.65-0.866,1.429-0.958h1.168
		c1.557,0,2.338,0.822,2.338,2.464v10.681c0.084,1.643-0.739,2.465-2.468,2.465h-1.038c-0.952,0-1.429-0.274-1.429-0.822V30.809
		L248.73,30.809z M248.73,16.568v12.323c0.174,0.548,0.434,0.822,0.778,0.822c0.519,0,0.78-0.411,0.78-1.232V17.391
		c0-0.821-0.306-1.232-0.908-1.232C249.031,16.157,248.816,16.295,248.73,16.568z M259.375,0.685h3.634
		c-0.433,1.188-0.823,2.054-1.167,2.601c-0.436,1.095-1.992,1.506-4.674,1.232C258.031,3.879,258.769,2.601,259.375,0.685z"/>
	<path fill="#1DAA22" d="M272.128,31.904h-4.154V14.651c-0.088,0-0.26,0.046-0.521,0.138c-0.258,0.092-0.433,0.092-0.517,0
		c1.296-1.918,2.379-5.796,3.245-11.639h-3.117V1.917h11.166V3.15h-3.507c-0.433,2.374-0.822,4.336-1.168,5.887
		c-0.177,0.732-0.349,1.325-0.519,1.78c0.258-0.09,0.519-0.138,0.778-0.138c3.03-0.274,4.457,0.869,4.283,3.423v10.955
		c0.434-0.911,0.864-1.962,1.3-3.149c0.863-2.921,1.73-5.978,2.596-9.174h-2.078V11.5h2.337c0.261-0.822,0.475-1.643,0.648-2.464
		h4.543c-0.173,0.366-0.303,0.777-0.388,1.232c-0.089,0.548-0.175,0.959-0.26,1.232h11.551v1.233h-11.942
		c-0.519,2.19-1.037,4.244-1.556,6.162c0.085,0.731,0.213,1.369,0.39,1.917c0.172,1.095,0.519,1.735,1.038,1.917
		c0.085-0.182,0.171-0.411,0.26-0.685c0.262-0.729,0.475-1.278,0.65-1.644c0,0.092,0,0.046,0-0.137h0.129l0.129-0.274v-6.436h4.545
		v7.257c0.26,0.548,0.52,1.095,0.78,1.644c0.259-0.275,0.473-0.821,0.647-1.644c0.344-1.644,0.647-3.423,0.909-5.339h4.022
		c-0.175,1.917-0.433,3.697-0.778,5.339c-0.174,1.917-1.603,2.875-4.283,2.875c1.126,2.649,2.12,4.566,2.985,5.751
		c0.433,0.822,1.339,1.826,2.727,3.012c-4.07,0.457-6.49-0.364-7.271-2.465c-0.777-1.095-1.472-2.417-2.076-3.971
		c-0.694,1.279-1.473,2.557-2.337,3.834c-0.694,1.186-1.559,1.917-2.598,2.191c-0.952,0.363-2.943,0.5-5.97,0.41
		c1.211-0.731,2.855-2.327,4.932-4.791c0.693-1.187,1.212-2.191,1.559-3.013c0.172-0.363,0.39-0.729,0.647-1.095
		c-0.432,0-0.952,0-1.556,0c-0.436-0.09-0.694-0.137-0.78-0.137c-0.088,0.092-0.131,0.184-0.131,0.274l-0.129,0.137
		c-0.518,2.284-2.251,3.287-5.193,3.013v1.096c0.087,2.646-0.823,3.923-2.725,3.834c-1.995,0-3.074-0.274-3.245-0.823V31.904
		L272.128,31.904z M274.075,28.48V14.103c0-1.369-0.392-2.006-1.169-1.917c-0.435,0.092-0.695,0.322-0.779,0.685v16.566
		c0.084,0.64,0.303,0.961,0.647,0.961C273.639,30.397,274.075,29.758,274.075,28.48z M283.942,8.763h-4.285V1.78h4.285v3.285
		c0.346,1.644,1.037,2.375,2.077,2.191h0.388V0.274h4.414v6.983c1.471-0.182,2.25-1.004,2.337-2.465V1.78h4.414v2.875
		c0.172,3.013-1.384,4.336-4.671,3.971h-6.234c-1.815,0.092-2.724-0.729-2.724-2.465L283.942,8.763L283.942,8.763z"/>
</g>
<g>
	<polygon fill="#858585" points="97.555,43.226 96.584,43.226 96.584,38.813 97.555,38.813 97.555,38.021 94.4,38.021 94.4,38.813 
		95.372,38.813 95.372,43.226 94.4,43.226 94.4,44.016 97.555,44.016 	"/>
	<polygon fill="#858585" points="99.747,39.246 102.928,43.972 102.958,44.016 104.245,44.016 104.245,38.022 103.1,38.022 
		103.1,42.38 100.192,38.022 98.601,38.022 98.601,44.016 99.747,44.016 	"/>
	<path fill="#858585" d="M108.979,43.922c0.398-0.062,0.802-0.188,1.202-0.379c0.488-0.246,0.883-0.593,1.172-1.031
		c0.291-0.441,0.438-0.941,0.438-1.486c0-0.584-0.142-1.094-0.422-1.516c-0.275-0.419-0.671-0.761-1.179-1.018
		c-0.292-0.146-0.651-0.262-1.065-0.345c-0.411-0.083-0.984-0.125-1.703-0.125h-1.833v5.993h1.853
		C108.073,44.016,108.576,43.985,108.979,43.922z M107.474,43.154h-0.672v-4.272h0.672c0.444,0,0.823,0.027,1.127,0.082
		c0.289,0.051,0.571,0.139,0.839,0.262c0.361,0.166,0.637,0.401,0.819,0.698c0.184,0.297,0.277,0.664,0.277,1.09
		c0,0.431-0.084,0.793-0.251,1.077c-0.167,0.285-0.419,0.517-0.753,0.689c-0.268,0.142-0.568,0.24-0.894,0.293
		C108.302,43.127,107.91,43.154,107.474,43.154z"/>
	<path fill="#858585" d="M115.448,44.137c0.473,0,0.88-0.046,1.21-0.136c0.336-0.092,0.632-0.232,0.88-0.418
		c0.286-0.213,0.487-0.474,0.598-0.775c0.111-0.299,0.167-0.659,0.167-1.071v-3.714h-1.212v3.734c0,0.246-0.022,0.46-0.066,0.634
		c-0.042,0.165-0.12,0.313-0.237,0.449c-0.125,0.142-0.302,0.251-0.528,0.326c-0.235,0.076-0.508,0.115-0.813,0.115
		c-0.325,0-0.602-0.039-0.824-0.115c-0.218-0.075-0.386-0.182-0.513-0.326c-0.118-0.132-0.199-0.283-0.239-0.45
		c-0.041-0.169-0.062-0.388-0.062-0.651v-3.715h-1.214v3.715c0,0.421,0.057,0.783,0.17,1.077c0.114,0.297,0.315,0.556,0.596,0.77
		c0.243,0.184,0.541,0.323,0.886,0.415C114.589,44.091,114.991,44.137,115.448,44.137z"/>
	<path fill="#858585" d="M122.96,43.981c0.32-0.095,0.609-0.23,0.86-0.403c0.229-0.159,0.41-0.358,0.54-0.593
		c0.129-0.236,0.194-0.478,0.194-0.717c0-0.385-0.132-0.715-0.392-0.982c-0.254-0.259-0.657-0.454-1.198-0.58
		c-0.206-0.046-0.465-0.097-0.777-0.154c-0.31-0.056-0.57-0.104-0.784-0.149c-0.307-0.063-0.541-0.164-0.697-0.297
		c-0.148-0.126-0.221-0.294-0.221-0.512c0-0.236,0.126-0.424,0.385-0.573c0.272-0.157,0.638-0.237,1.089-0.237
		c0.404,0,0.794,0.063,1.16,0.185c0.37,0.124,0.674,0.268,0.904,0.428l0.026,0.018h0.208v-1.091l-0.065-0.024
		c-0.326-0.12-0.687-0.215-1.073-0.281c-0.389-0.065-0.802-0.099-1.228-0.099c-0.762,0-1.399,0.165-1.895,0.493
		c-0.509,0.336-0.767,0.762-0.767,1.266c0,0.242,0.048,0.458,0.143,0.642c0.091,0.184,0.223,0.346,0.391,0.483
		c0.164,0.132,0.359,0.243,0.58,0.331c0.222,0.084,0.465,0.152,0.722,0.201c0.293,0.059,0.537,0.104,0.732,0.138
		c0.193,0.034,0.406,0.076,0.639,0.127c0.309,0.067,0.533,0.167,0.668,0.298c0.131,0.127,0.195,0.288,0.195,0.492
		c0,0.256-0.125,0.458-0.384,0.618c-0.269,0.166-0.677,0.251-1.213,0.251c-0.38,0-0.781-0.064-1.192-0.192
		c-0.413-0.128-0.784-0.31-1.105-0.541l-0.026-0.019h-0.204v1.135l0.065,0.024c0.346,0.129,0.718,0.238,1.104,0.324
		c0.391,0.088,0.872,0.133,1.43,0.133C122.244,44.122,122.643,44.075,122.96,43.981z"/>
	<polygon fill="#858585" points="127.165,44.016 128.378,44.016 128.378,38.907 130.933,38.907 130.933,38.023 124.61,38.023 
		124.61,38.907 127.165,38.907 	"/>
	<path fill="#858585" d="M132.712,41.712h1.016l2.412,2.304h1.561h0.047h3.107v-0.79h-0.972v-4.412h0.972v-0.792H137.7v0.792h0.972
		v4.412H137.7v0.746l-2.72-2.531c0.426-0.143,0.773-0.347,1.032-0.608c0.301-0.306,0.453-0.688,0.453-1.138
		c0-0.324-0.085-0.602-0.253-0.823c-0.162-0.215-0.386-0.393-0.666-0.53c-0.278-0.138-0.572-0.227-0.873-0.264
		c-0.297-0.037-0.66-0.055-1.11-0.055h-2.063v5.993h1.212V41.712z M135.111,40.239c-0.063,0.135-0.163,0.253-0.294,0.352
		c-0.151,0.112-0.336,0.188-0.549,0.224c-0.228,0.037-0.486,0.057-0.767,0.057h-0.791v-1.988h0.902c0.272,0,0.507,0.015,0.696,0.044
		c0.181,0.029,0.339,0.077,0.471,0.146c0.147,0.073,0.252,0.165,0.321,0.282c0.069,0.114,0.104,0.248,0.104,0.398
		C135.204,39.938,135.173,40.103,135.111,40.239z"/>
	<path fill="#858585" d="M142.958,42.397h2.777l0.689,1.618h1.288l-2.655-5.993h-1.377l-2.593,5.854l-0.063,0.14h1.244
		L142.958,42.397z M143.323,41.54l1.019-2.379l1.024,2.379H143.323z"/>
	<polygon fill="#858585" points="149.391,38.022 148.18,38.022 148.18,44.016 152.791,44.016 152.791,43.132 149.391,43.132 	"/>
	<polygon fill="#858585" points="156.76,44.015 161.617,44.015 161.617,43.13 157.87,43.13 157.87,41.179 161.362,41.179 
		161.362,40.295 157.87,40.295 157.87,38.906 161.617,38.906 161.617,38.022 156.659,38.022 156.659,43.916 156.76,43.916 	"/>
	<polygon fill="#858585" points="163.676,39.246 166.857,43.972 166.886,44.016 168.175,44.016 168.175,38.022 167.03,38.022 
		167.03,42.38 164.121,38.022 162.531,38.022 162.531,44.016 163.676,44.016 	"/>
	<polygon fill="#858585" points="169.62,44.015 174.479,44.015 174.479,43.13 170.732,43.13 170.732,41.179 174.223,41.179 
		174.223,40.295 170.732,40.295 170.732,38.906 174.479,38.906 174.479,38.022 169.52,38.022 169.52,43.916 169.62,43.916 	"/>
	<path fill="#858585" d="M176.603,41.712h1.016l2.413,2.304h1.607l-2.768-2.575c0.426-0.143,0.772-0.347,1.031-0.608
		c0.301-0.305,0.454-0.688,0.454-1.138c0-0.323-0.085-0.601-0.253-0.823c-0.165-0.217-0.39-0.396-0.667-0.53
		c-0.278-0.138-0.571-0.227-0.872-0.264c-0.297-0.037-0.66-0.055-1.11-0.055h-2.063v5.993h1.212V41.712z M179.002,40.24
		c-0.063,0.134-0.161,0.252-0.293,0.351c-0.151,0.112-0.336,0.188-0.549,0.224c-0.228,0.037-0.485,0.057-0.766,0.057h-0.791v-1.988
		h0.902c0.272,0,0.506,0.015,0.695,0.044c0.18,0.029,0.339,0.077,0.472,0.146c0.146,0.072,0.254,0.168,0.322,0.282
		c0.069,0.114,0.104,0.248,0.104,0.398C179.098,39.939,179.066,40.104,179.002,40.24z"/>
	<path fill="#858585" d="M186.6,43.957c0.186-0.039,0.393-0.094,0.615-0.162l0.08-0.025c0.18-0.058,0.327-0.104,0.44-0.143
		l0.068-0.023v-2.7h-2.96v0.876h1.759v1.324c-0.173,0.05-0.384,0.089-0.626,0.115c-0.653,0.07-1.33,0.069-1.85-0.106
		c-0.295-0.101-0.549-0.247-0.754-0.437c-0.213-0.192-0.379-0.429-0.492-0.704c-0.114-0.274-0.172-0.604-0.172-0.981
		c0-0.665,0.217-1.205,0.645-1.604c0.431-0.4,1.005-0.604,1.709-0.604c0.293,0,0.576,0.025,0.839,0.074
		c0.253,0.051,0.485,0.115,0.691,0.193c0.225,0.079,0.411,0.159,0.553,0.238c0.133,0.076,0.261,0.155,0.385,0.239l0.025,0.017h0.218
		v-1.099l-0.065-0.024c-0.131-0.048-0.302-0.109-0.513-0.178c-0.236-0.077-0.42-0.13-0.579-0.165
		c-0.219-0.05-0.449-0.09-0.684-0.118c-0.237-0.029-0.482-0.043-0.749-0.043c-0.549,0-1.059,0.07-1.517,0.209
		c-0.464,0.142-0.86,0.347-1.178,0.607c-0.331,0.271-0.588,0.603-0.766,0.983c-0.178,0.383-0.268,0.819-0.268,1.297
		c0,0.501,0.089,0.955,0.265,1.349c0.177,0.392,0.434,0.725,0.765,0.99c0.33,0.262,0.729,0.459,1.185,0.586s0.963,0.19,1.505,0.19
		c0.286,0,0.537-0.015,0.746-0.044C186.111,44.06,186.334,44.017,186.6,43.957z"/>
	<polygon fill="#858585" points="190.619,44.016 191.83,44.016 191.83,41.387 194.349,38.223 194.401,38.222 194.401,38.157 
		194.508,38.023 194.401,38.023 194.401,37.837 194.252,38.023 193.179,38.023 191.236,40.517 189.321,38.023 187.944,38.023 
		190.619,41.469 	"/>
	<path fill="#858585" d="M198.971,43.989c0.389,0.088,0.87,0.133,1.431,0.133c0.474,0,0.86-0.046,1.184-0.141
		c0.321-0.095,0.61-0.23,0.859-0.403c0.229-0.159,0.411-0.358,0.539-0.593c0.129-0.234,0.194-0.476,0.194-0.717
		c0-0.385-0.131-0.715-0.39-0.982c-0.256-0.259-0.66-0.454-1.201-0.58c-0.206-0.046-0.463-0.097-0.774-0.154
		c-0.31-0.056-0.571-0.104-0.786-0.149c-0.306-0.063-0.539-0.164-0.695-0.297c-0.148-0.126-0.221-0.294-0.221-0.512
		c0-0.235,0.127-0.423,0.386-0.573c0.271-0.157,0.638-0.237,1.089-0.237c0.404,0,0.794,0.063,1.159,0.185
		c0.367,0.122,0.672,0.267,0.905,0.428l0.025,0.018h0.207v-1.092l-0.065-0.023c-0.328-0.12-0.689-0.215-1.072-0.281
		c-0.389-0.065-0.801-0.099-1.226-0.099c-0.762,0-1.4,0.165-1.898,0.493c-0.506,0.336-0.763,0.762-0.763,1.266
		c0,0.241,0.047,0.457,0.14,0.642c0.093,0.186,0.225,0.348,0.393,0.483c0.165,0.134,0.36,0.245,0.579,0.331
		c0.22,0.084,0.463,0.151,0.722,0.201c0.293,0.059,0.538,0.104,0.732,0.138c0.192,0.034,0.407,0.076,0.64,0.127
		c0.31,0.067,0.533,0.168,0.667,0.298c0.132,0.127,0.196,0.287,0.196,0.492c0,0.256-0.126,0.458-0.383,0.618
		c-0.27,0.166-0.678,0.251-1.215,0.251c-0.38,0-0.781-0.064-1.192-0.192c-0.41-0.127-0.782-0.309-1.105-0.541l-0.026-0.019h-0.203
		v1.135l0.064,0.024C198.215,43.795,198.587,43.904,198.971,43.989z"/>
	<path fill="#858585" d="M204.378,44.016l0.689-1.618h2.774l0.69,1.618h1.287l-2.652-5.993h-1.379l-2.593,5.854l-0.062,0.14H204.378
		z M205.433,41.54l1.019-2.378l1.023,2.378H205.433z"/>
	<polygon fill="#858585" points="213.351,44.016 215.993,38.163 216.058,38.022 214.805,38.022 212.764,42.683 210.749,38.082 
		210.723,38.022 209.42,38.022 212.128,44.016 	"/>
	<polygon fill="#858585" points="219.392,43.226 218.42,43.226 218.42,38.813 219.392,38.813 219.392,38.021 216.239,38.021 
		216.239,38.813 217.209,38.813 217.209,43.226 216.239,43.226 216.239,44.016 219.392,44.016 	"/>
	<polygon fill="#858585" points="224.938,42.38 222.031,38.022 220.441,38.022 220.441,44.016 221.584,44.016 221.584,39.247 
		224.764,43.972 224.793,44.016 226.083,44.016 226.083,38.022 224.938,38.022 	"/>
	<path fill="#858585" d="M228.022,43.354c0.331,0.263,0.73,0.459,1.187,0.586s0.962,0.19,1.503,0.19
		c0.288,0,0.538-0.015,0.744-0.044c0.194-0.027,0.418-0.069,0.684-0.129c0.188-0.039,0.394-0.094,0.613-0.162
		c0.217-0.069,0.39-0.124,0.521-0.168l0.068-0.022v-2.701h-2.961v0.876h1.76v1.324c-0.176,0.05-0.387,0.089-0.628,0.115
		c-0.28,0.03-0.563,0.046-0.841,0.046c-0.377,0-0.707-0.05-1.009-0.152c-0.3-0.102-0.547-0.245-0.755-0.437
		c-0.214-0.192-0.379-0.429-0.491-0.704c-0.114-0.276-0.172-0.606-0.172-0.981c0-0.676,0.211-1.2,0.646-1.604
		c0.436-0.406,0.994-0.604,1.708-0.604c0.293,0,0.575,0.025,0.839,0.074c0.256,0.051,0.488,0.115,0.692,0.193
		c0.222,0.078,0.414,0.161,0.553,0.238c0.132,0.076,0.261,0.155,0.385,0.239l0.025,0.017h0.218v-1.1l-0.065-0.023
		c-0.132-0.048-0.302-0.109-0.512-0.178c-0.23-0.075-0.419-0.129-0.578-0.165c-0.223-0.05-0.453-0.09-0.686-0.118
		c-0.233-0.028-0.485-0.043-0.748-0.043c-0.549,0-1.06,0.07-1.517,0.209c-0.465,0.142-0.861,0.346-1.179,0.607
		c-0.329,0.269-0.587,0.6-0.767,0.983c-0.177,0.378-0.267,0.814-0.267,1.297c0,0.509,0.089,0.963,0.265,1.349
		C227.436,42.757,227.693,43.09,228.022,43.354z"/>
	<path fill="#858585" d="M240.841,38.022h-1.378l-2.593,5.854l-0.062,0.14h1.243l0.69-1.618h2.774l0.689,1.618h1.288L240.841,38.022
		z M241.151,41.54h-2.044l1.02-2.379L241.151,41.54z"/>
	<polygon fill="#858585" points="248.46,42.38 245.552,38.022 243.963,38.022 243.963,44.016 245.108,44.016 245.108,39.247 
		248.287,43.972 248.317,44.016 249.606,44.016 249.606,38.022 248.46,38.022 	"/>
	<path fill="#858585" d="M255.552,38.492c-0.292-0.145-0.65-0.261-1.066-0.345c-0.411-0.083-0.985-0.125-1.704-0.125h-1.832v5.993
		h1.852c0.633,0,1.136-0.03,1.538-0.094c0.401-0.062,0.794-0.186,1.203-0.38c0.486-0.245,0.88-0.591,1.17-1.029
		c0.291-0.439,0.438-0.939,0.438-1.487c0-0.586-0.142-1.096-0.422-1.516C256.454,39.091,256.059,38.749,255.552,38.492z
		 M252.834,43.154h-0.671v-4.272h0.671c0.443,0,0.823,0.027,1.127,0.082c0.289,0.051,0.571,0.139,0.839,0.262
		c0.361,0.166,0.638,0.4,0.821,0.698c0.185,0.299,0.278,0.666,0.278,1.09c0,0.428-0.085,0.79-0.252,1.077
		c-0.169,0.285-0.422,0.517-0.754,0.689c-0.268,0.142-0.569,0.24-0.895,0.293C253.663,43.127,253.271,43.154,252.834,43.154z"/>
	<path fill="#858585" d="M266.86,42.506h-0.211l-0.027,0.021c-0.068,0.054-0.168,0.12-0.313,0.21
		c-0.131,0.082-0.285,0.161-0.472,0.241c-0.186,0.079-0.397,0.145-0.646,0.2c-0.241,0.053-0.5,0.079-0.791,0.079
		c-0.307,0-0.602-0.048-0.876-0.141c-0.278-0.095-0.512-0.229-0.714-0.414c-0.208-0.188-0.373-0.42-0.491-0.691
		c-0.12-0.274-0.181-0.606-0.181-0.985c0-0.357,0.059-0.684,0.173-0.971c0.113-0.283,0.272-0.521,0.475-0.706
		c0.208-0.188,0.453-0.332,0.729-0.428c0.278-0.097,0.577-0.146,0.887-0.146c0.293,0,0.552,0.025,0.771,0.075
		c0.227,0.053,0.435,0.117,0.616,0.192c0.189,0.082,0.357,0.168,0.499,0.255c0.138,0.086,0.251,0.16,0.338,0.222l0.025,0.019h0.214
		v-1.096l-0.062-0.026c-0.184-0.076-0.354-0.14-0.516-0.194c-0.168-0.059-0.341-0.108-0.513-0.149
		c-0.188-0.044-0.395-0.08-0.631-0.11c-0.225-0.029-0.464-0.043-0.731-0.043c-0.523,0-1.004,0.069-1.427,0.208
		c-0.424,0.139-0.799,0.346-1.113,0.613c-0.319,0.274-0.565,0.603-0.732,0.977c-0.168,0.369-0.252,0.81-0.252,1.31
		c0,0.501,0.087,0.95,0.259,1.335c0.173,0.393,0.419,0.722,0.732,0.979c0.313,0.259,0.688,0.457,1.115,0.587
		c0.429,0.13,0.9,0.195,1.402,0.195c0.309,0,0.563-0.015,0.752-0.045c0.187-0.028,0.396-0.07,0.624-0.126
		c0.229-0.058,0.409-0.11,0.551-0.163c0.121-0.045,0.248-0.091,0.381-0.138l0.157-0.057V42.506z"/>
	<path fill="#858585" d="M269.386,38.022l-2.653,5.993h1.241l0.69-1.618h2.776l0.688,1.618h1.29l-2.655-5.993H269.386z
		 M271.073,41.54h-2.043l1.019-2.379L271.073,41.54z"/>
	<path fill="#858585" d="M278.396,40.832c0.3-0.304,0.452-0.687,0.452-1.138c0-0.324-0.084-0.601-0.251-0.823
		c-0.165-0.217-0.39-0.396-0.667-0.53c-0.28-0.138-0.574-0.227-0.873-0.264c-0.297-0.037-0.66-0.055-1.11-0.055h-2.062v5.993h1.211
		v-2.304h1.015l2.386,2.276l0.029,0.027h1.605l-2.767-2.575C277.791,41.298,278.138,41.094,278.396,40.832z M277.495,40.239
		c-0.063,0.136-0.162,0.254-0.294,0.352c-0.151,0.112-0.336,0.188-0.548,0.224c-0.229,0.037-0.487,0.057-0.768,0.057h-0.791v-1.988
		h0.903c0.272,0,0.507,0.015,0.695,0.044c0.183,0.029,0.341,0.078,0.472,0.145c0.146,0.074,0.254,0.169,0.321,0.282
		c0.069,0.116,0.104,0.25,0.104,0.399C277.591,39.938,277.559,40.102,277.495,40.239z"/>
	<path fill="#858585" d="M284.487,40.663c0.241-0.116,0.438-0.262,0.591-0.435c0.205-0.233,0.309-0.502,0.309-0.799
		c0-0.264-0.069-0.498-0.208-0.693c-0.136-0.197-0.346-0.352-0.641-0.474c-0.255-0.104-0.526-0.171-0.808-0.199
		c-0.272-0.027-0.687-0.041-1.229-0.041h-2.118v5.993h2.281c0.535,0,0.957-0.035,1.288-0.108c0.338-0.073,0.658-0.199,0.951-0.375
		c0.253-0.15,0.458-0.344,0.611-0.577c0.152-0.234,0.229-0.51,0.229-0.817c0-0.396-0.134-0.731-0.4-0.999
		C285.127,40.926,284.841,40.767,284.487,40.663z M281.592,41.22h1.05c0.353,0,0.613,0.009,0.798,0.027
		c0.18,0.017,0.346,0.057,0.496,0.117c0.227,0.089,0.376,0.194,0.445,0.315c0.073,0.126,0.11,0.29,0.11,0.489
		c0,0.185-0.039,0.334-0.115,0.445c-0.079,0.113-0.208,0.219-0.383,0.312c-0.187,0.097-0.402,0.16-0.641,0.188
		c-0.259,0.031-0.608,0.047-1.037,0.047h-0.724V41.22z M281.591,38.88h0.873c0.363,0,0.633,0.008,0.825,0.022
		c0.189,0.016,0.363,0.057,0.515,0.121c0.118,0.051,0.2,0.117,0.25,0.203c0.053,0.087,0.079,0.189,0.079,0.313
		c0,0.162-0.029,0.298-0.089,0.405c-0.053,0.103-0.145,0.185-0.281,0.251c-0.151,0.074-0.299,0.123-0.438,0.146
		c-0.143,0.024-0.366,0.036-0.685,0.036h-1.05V38.88z"/>
	<path fill="#858585" d="M292.099,38.712c-0.296-0.257-0.662-0.459-1.087-0.601c-0.423-0.141-0.905-0.211-1.433-0.211
		c-0.517,0-0.993,0.069-1.419,0.206c-0.425,0.139-0.792,0.342-1.095,0.605c-0.303,0.273-0.539,0.604-0.704,0.985
		c-0.162,0.382-0.244,0.827-0.244,1.323c0,0.483,0.081,0.926,0.242,1.315c0.163,0.39,0.4,0.722,0.702,0.986
		c0.306,0.27,0.675,0.476,1.097,0.611c0.423,0.137,0.887,0.203,1.421,0.203c0.511,0,0.981-0.065,1.397-0.196
		c0.425-0.132,0.803-0.34,1.122-0.617c0.31-0.267,0.547-0.601,0.707-0.991c0.161-0.39,0.243-0.831,0.243-1.311
		c0-0.492-0.083-0.939-0.249-1.327C292.634,39.304,292.399,38.974,292.099,38.712z M291.795,41.021c0,0.729-0.2,1.293-0.595,1.673
		c-0.403,0.388-0.932,0.577-1.616,0.577c-0.674,0-1.218-0.194-1.616-0.577c-0.396-0.382-0.599-0.945-0.599-1.673
		c0-0.363,0.053-0.692,0.156-0.979c0.1-0.282,0.247-0.52,0.438-0.705c0.197-0.193,0.43-0.339,0.691-0.431
		c0.264-0.093,0.576-0.141,0.93-0.141c0.345,0,0.656,0.049,0.927,0.145c0.267,0.093,0.5,0.235,0.691,0.427
		c0.185,0.183,0.332,0.418,0.437,0.697C291.742,40.321,291.795,40.653,291.795,41.021z"/>
	<polygon fill="#858585" points="298.454,38.022 298.454,42.38 295.547,38.022 293.957,38.022 293.957,44.016 295.102,44.016 
		295.102,39.247 298.282,43.972 298.312,44.016 299.599,44.016 299.599,38.022 	"/>
	<path fill="#858585" d="M99.21,50.794c0.3-0.306,0.453-0.688,0.453-1.137c0-0.329-0.083-0.599-0.253-0.822
		c-0.163-0.217-0.387-0.396-0.667-0.533c-0.274-0.136-0.568-0.224-0.873-0.262c-0.293-0.036-0.666-0.055-1.11-0.055h-2.063v5.993
		h1.212v-2.303h1.016l2.412,2.303h1.608l-2.767-2.576C98.604,51.26,98.95,51.056,99.21,50.794z M98.308,50.203
		c-0.063,0.136-0.163,0.254-0.294,0.351c-0.151,0.112-0.335,0.188-0.549,0.224c-0.226,0.038-0.483,0.058-0.766,0.058h-0.791v-1.988
		h0.901c0.271,0,0.505,0.015,0.696,0.043c0.178,0.028,0.336,0.077,0.471,0.145c0.148,0.075,0.253,0.168,0.321,0.284
		c0.068,0.113,0.103,0.247,0.103,0.398C98.402,49.902,98.37,50.066,98.308,50.203z"/>
	<polygon fill="#858585" points="101.194,53.879 101.294,53.879 101.294,53.978 106.153,53.978 106.153,53.094 102.406,53.094 
		102.406,51.141 105.898,51.141 105.898,50.257 102.406,50.257 102.406,48.868 106.153,48.868 106.153,47.985 101.194,47.985 	"/>
	<path fill="#858585" d="M111.667,48.453c-0.294-0.146-0.652-0.261-1.065-0.344c-0.414-0.084-0.972-0.124-1.704-0.124h-1.832v5.993
		h1.853c0.632,0,1.135-0.03,1.537-0.094c0.403-0.064,0.807-0.192,1.202-0.38c0.489-0.246,0.883-0.592,1.171-1.029
		c0.292-0.44,0.439-0.941,0.439-1.488c0-0.581-0.142-1.091-0.422-1.516C112.567,49.048,112.17,48.706,111.667,48.453z
		 M108.952,53.118h-0.672v-4.272h0.672c0.442,0,0.822,0.027,1.126,0.081c0.294,0.052,0.576,0.141,0.839,0.262
		c0.361,0.167,0.638,0.402,0.822,0.699c0.183,0.296,0.276,0.663,0.276,1.089c0,0.432-0.084,0.795-0.251,1.078
		c-0.168,0.286-0.422,0.518-0.753,0.689c-0.268,0.142-0.569,0.24-0.895,0.292C109.782,53.09,109.39,53.118,108.952,53.118z"/>
	<path fill="#858585" d="M118.568,51.72c0,0.258-0.021,0.465-0.064,0.634c-0.042,0.164-0.12,0.311-0.237,0.448
		c-0.125,0.142-0.298,0.249-0.529,0.326c-0.234,0.076-0.507,0.115-0.813,0.115c-0.325,0-0.602-0.039-0.822-0.115
		c-0.222-0.077-0.389-0.185-0.514-0.327c-0.117-0.131-0.197-0.281-0.238-0.448c-0.043-0.177-0.063-0.391-0.063-0.652v-3.714h-1.213
		V51.7c0,0.422,0.058,0.784,0.171,1.077c0.113,0.295,0.313,0.554,0.595,0.77c0.245,0.185,0.544,0.324,0.887,0.416
		c0.343,0.091,0.746,0.137,1.197,0.137c0.481,0,0.877-0.044,1.211-0.136c0.338-0.095,0.634-0.235,0.879-0.418
		c0.285-0.211,0.486-0.473,0.599-0.777c0.111-0.296,0.167-0.655,0.167-1.068v-3.715h-1.213V51.72z"/>
	<path fill="#858585" d="M126.542,48.391l-0.031-0.013c-0.172-0.072-0.34-0.137-0.516-0.197c-0.173-0.059-0.346-0.108-0.514-0.148
		c-0.192-0.044-0.404-0.081-0.63-0.11c-0.225-0.029-0.464-0.043-0.731-0.043c-0.521,0-1.001,0.07-1.426,0.209
		c-0.427,0.141-0.801,0.348-1.112,0.613c-0.319,0.274-0.567,0.603-0.735,0.977c-0.167,0.371-0.251,0.812-0.251,1.31
		c0,0.501,0.087,0.951,0.259,1.338c0.174,0.39,0.421,0.719,0.734,0.979c0.312,0.258,0.687,0.455,1.115,0.586
		c0.425,0.129,0.896,0.194,1.401,0.194c0.321,0,0.567-0.015,0.75-0.046c0.187-0.026,0.397-0.068,0.624-0.126
		c0.215-0.052,0.4-0.106,0.55-0.161l0.131-0.048c0.109-0.04,0.223-0.082,0.342-0.125l0.066-0.023v-1.087h-0.209l-0.026,0.019
		c-0.077,0.057-0.181,0.128-0.314,0.211c-0.138,0.084-0.297,0.165-0.473,0.239c-0.181,0.078-0.399,0.146-0.647,0.202
		c-0.506,0.108-1.142,0.117-1.668-0.063c-0.271-0.093-0.511-0.231-0.711-0.413c-0.209-0.188-0.375-0.421-0.493-0.691
		c-0.12-0.271-0.18-0.603-0.18-0.986c0-0.359,0.058-0.686,0.173-0.97c0.111-0.281,0.271-0.52,0.473-0.707
		c0.208-0.187,0.453-0.33,0.729-0.428c0.276-0.097,0.575-0.146,0.888-0.146c0.293,0,0.552,0.025,0.769,0.076
		c0.236,0.055,0.438,0.118,0.618,0.193c0.196,0.084,0.363,0.169,0.499,0.255c0.137,0.086,0.25,0.159,0.337,0.222l0.026,0.019h0.214
		V48.87h2.524v5.108h1.212V48.87h2.556v-0.884h-6.323V48.391z"/>
	<polygon fill="#858585" points="133.135,48.774 134.107,48.774 134.107,53.188 133.135,53.188 133.135,53.979 136.29,53.979 
		136.29,53.188 135.318,53.188 135.318,48.774 136.29,48.774 136.29,47.984 133.135,47.984 	"/>
	<path fill="#858585" d="M142.885,48.675c-0.293-0.255-0.659-0.457-1.088-0.6c-0.422-0.141-0.903-0.211-1.43-0.211
		c-0.524,0-1.001,0.068-1.419,0.205c-0.425,0.137-0.793,0.341-1.097,0.606c-0.302,0.272-0.538,0.604-0.702,0.984
		c-0.163,0.379-0.246,0.823-0.246,1.323c0,0.488,0.082,0.932,0.243,1.316c0.163,0.389,0.398,0.721,0.701,0.985
		c0.307,0.27,0.677,0.475,1.099,0.61c0.42,0.136,0.898,0.204,1.421,0.204c0.503,0,0.974-0.065,1.397-0.196
		c0.422-0.132,0.8-0.34,1.122-0.618c0.305-0.265,0.543-0.598,0.707-0.99c0.161-0.391,0.242-0.831,0.242-1.312
		c0-0.496-0.083-0.942-0.248-1.326C143.42,49.267,143.184,48.937,142.885,48.675z M142.58,50.983c0,0.729-0.2,1.292-0.595,1.674
		c-0.396,0.383-0.939,0.577-1.614,0.577c-0.676,0-1.22-0.194-1.617-0.577c-0.402-0.389-0.598-0.936-0.598-1.674
		c0-0.364,0.052-0.692,0.156-0.978c0.101-0.281,0.248-0.52,0.437-0.707c0.198-0.192,0.431-0.337,0.691-0.43
		c0.266-0.095,0.571-0.141,0.932-0.141c0.342,0,0.653,0.049,0.925,0.146c0.268,0.092,0.5,0.235,0.691,0.425
		c0.188,0.187,0.335,0.423,0.437,0.7C142.528,50.281,142.58,50.612,142.58,50.983z"/>
	<polygon fill="#858585" points="149.241,52.343 146.333,47.985 144.744,47.985 144.744,53.979 145.889,53.979 145.889,49.211 
		149.069,53.935 149.099,53.979 150.387,53.979 150.387,47.985 149.241,47.985 	"/>
	<polygon fill="#858585" points="154.705,48.774 155.677,48.774 155.677,53.188 154.705,53.188 154.705,53.979 157.861,53.979 
		157.861,53.188 156.889,53.188 156.889,48.774 157.861,48.774 157.861,47.984 154.705,47.984 	"/>
	<polygon fill="#858585" points="163.404,52.343 160.495,47.985 158.906,47.985 158.906,53.979 160.053,53.979 160.053,49.21 
		163.233,53.935 163.263,53.979 164.55,53.979 164.55,47.985 163.404,47.985 	"/>
	<polygon fill="#858585" points="165.896,53.979 167.107,53.979 167.107,51.188 170.501,51.188 170.501,50.305 167.107,50.305 
		167.107,48.87 170.65,48.87 170.65,47.985 165.896,47.985 	"/>
	<path fill="#858585" d="M176.902,48.675c-0.291-0.255-0.657-0.456-1.087-0.6c-0.423-0.141-0.905-0.211-1.432-0.211
		c-0.522,0-1,0.068-1.418,0.205c-0.425,0.137-0.794,0.341-1.096,0.606c-0.304,0.273-0.54,0.605-0.702,0.984
		c-0.164,0.38-0.247,0.825-0.247,1.323c0,0.486,0.082,0.929,0.243,1.315c0.162,0.389,0.398,0.721,0.701,0.986
		c0.305,0.269,0.674,0.475,1.098,0.61c0.421,0.136,0.899,0.204,1.421,0.204c0.504,0,0.975-0.065,1.397-0.196
		c0.423-0.133,0.801-0.34,1.121-0.618c0.308-0.266,0.546-0.599,0.707-0.99c0.162-0.39,0.244-0.831,0.244-1.312
		c0-0.494-0.084-0.94-0.25-1.326C177.438,49.269,177.202,48.938,176.902,48.675z M176.598,50.983c0,0.739-0.194,1.286-0.595,1.674
		c-0.396,0.383-0.94,0.577-1.615,0.577s-1.219-0.194-1.617-0.577c-0.403-0.389-0.599-0.937-0.599-1.674
		c0-0.362,0.052-0.691,0.154-0.977c0.104-0.283,0.251-0.521,0.44-0.708c0.198-0.192,0.43-0.337,0.69-0.43
		c0.266-0.095,0.57-0.141,0.931-0.141c0.343,0,0.655,0.049,0.926,0.146c0.268,0.093,0.5,0.235,0.69,0.425
		c0.188,0.187,0.335,0.423,0.437,0.7C176.545,50.282,176.598,50.613,176.598,50.983z"/>
	<path fill="#858585" d="M183.272,50.794c0.301-0.305,0.454-0.688,0.454-1.137c0-0.324-0.085-0.602-0.252-0.823
		c-0.165-0.218-0.39-0.396-0.667-0.532c-0.275-0.136-0.569-0.224-0.873-0.262c-0.293-0.036-0.666-0.055-1.109-0.055h-2.064v5.993
		h1.213v-2.303h1.016l2.412,2.303h1.608l-2.769-2.576C182.667,51.26,183.013,51.056,183.272,50.794z M182.371,50.204
		c-0.061,0.133-0.16,0.251-0.294,0.35c-0.149,0.112-0.334,0.188-0.55,0.224c-0.224,0.038-0.48,0.058-0.764,0.058h-0.79v-1.988h0.901
		c0.271,0,0.505,0.015,0.696,0.043c0.178,0.028,0.336,0.077,0.471,0.145c0.148,0.075,0.254,0.168,0.323,0.283
		c0.068,0.115,0.103,0.25,0.103,0.399C182.467,49.902,182.435,50.066,182.371,50.204z"/>
	<polygon fill="#858585" points="188.638,51.112 186.796,47.986 185.258,47.986 185.258,53.979 186.404,53.979 186.404,49.259 
		188.214,52.384 188.941,52.384 190.767,49.257 190.767,53.979 191.981,53.979 191.981,47.986 190.417,47.986 	"/>
	<path fill="#858585" d="M195.101,47.985l-2.593,5.854l-0.062,0.14h1.242l0.69-1.618h2.775l0.69,1.618h1.288l-2.654-5.993H195.101z
		 M196.788,51.503h-2.044l1.021-2.379L196.788,51.503z"/>
	<polygon fill="#858585" points="198.823,48.87 201.38,48.87 201.38,53.979 202.59,53.979 202.59,48.87 205.146,48.87 
		205.146,47.986 198.823,47.986 	"/>
	<polygon fill="#858585" points="205.416,48.774 206.389,48.774 206.389,53.188 205.416,53.188 205.416,53.979 208.572,53.979 
		208.572,53.188 207.599,53.188 207.599,48.774 208.572,48.774 208.572,47.984 205.416,47.984 	"/>
	<path fill="#858585" d="M215.166,48.675c-0.293-0.255-0.658-0.457-1.088-0.6c-0.422-0.141-0.903-0.211-1.432-0.211
		c-0.523,0-1.001,0.068-1.416,0.205c-0.428,0.138-0.797,0.342-1.1,0.606c-0.302,0.273-0.537,0.604-0.701,0.984
		c-0.163,0.376-0.245,0.821-0.245,1.323c0,0.488,0.081,0.932,0.243,1.316c0.162,0.388,0.397,0.72,0.699,0.985
		c0.307,0.269,0.677,0.475,1.101,0.61c0.42,0.136,0.897,0.204,1.419,0.204c0.504,0,0.974-0.065,1.397-0.196
		c0.425-0.132,0.802-0.34,1.122-0.618c0.306-0.264,0.543-0.597,0.707-0.99c0.161-0.392,0.242-0.833,0.242-1.312
		c0-0.494-0.083-0.94-0.248-1.326C215.701,49.267,215.466,48.937,215.166,48.675z M214.863,50.983c0,0.729-0.201,1.293-0.596,1.674
		c-0.396,0.383-0.939,0.577-1.614,0.577c-0.676,0-1.22-0.194-1.616-0.577c-0.403-0.389-0.6-0.937-0.6-1.674
		c0-0.362,0.053-0.691,0.155-0.978c0.102-0.282,0.249-0.521,0.439-0.707c0.196-0.191,0.429-0.337,0.689-0.43
		c0.262-0.093,0.575-0.141,0.932-0.141c0.342,0,0.653,0.049,0.926,0.146c0.266,0.092,0.498,0.234,0.69,0.424
		c0.188,0.188,0.334,0.424,0.436,0.702C214.809,50.279,214.863,50.61,214.863,50.983z"/>
	<polygon fill="#858585" points="221.524,52.343 218.615,47.985 217.026,47.985 217.026,53.979 218.169,53.979 218.169,49.21 
		221.353,53.935 221.383,53.979 222.667,53.979 222.667,47.985 221.524,47.985 	"/>
	<polygon fill="#858585" points="233.406,52.616 231.964,48.055 231.942,47.985 230.767,47.985 229.317,52.571 227.878,48.055 
		227.856,47.985 226.607,47.985 228.599,53.911 228.621,53.979 229.881,53.979 231.322,49.398 232.774,53.909 232.795,53.979 
		234.08,53.979 236.016,48.116 236.06,47.985 234.856,47.985 	"/>
	<polygon fill="#858585" points="236.726,53.879 236.825,53.879 236.825,53.978 241.683,53.978 241.683,53.094 237.937,53.094 
		237.937,51.141 241.428,51.141 241.428,50.257 237.937,50.257 237.937,48.868 241.683,48.868 241.683,47.985 236.726,47.985 	"/>
	<path fill="#858585" d="M246.705,50.625c0.24-0.116,0.438-0.262,0.591-0.436c0.204-0.235,0.307-0.504,0.307-0.797
		c0-0.266-0.069-0.499-0.206-0.693c-0.136-0.196-0.352-0.355-0.643-0.474c-0.261-0.105-0.532-0.173-0.808-0.2
		c-0.288-0.026-0.701-0.04-1.229-0.04H242.6v5.993h2.281c0.521,0,0.955-0.036,1.287-0.109c0.335-0.071,0.654-0.197,0.951-0.375
		c0.258-0.152,0.458-0.341,0.611-0.576c0.153-0.237,0.23-0.512,0.23-0.817c0-0.398-0.135-0.734-0.401-0.999
		C247.345,50.889,247.058,50.729,246.705,50.625z M243.81,51.184h1.05c0.371,0,0.624,0.008,0.796,0.025
		c0.181,0.018,0.348,0.057,0.496,0.117c0.228,0.09,0.378,0.196,0.447,0.317c0.074,0.128,0.11,0.287,0.11,0.489
		c0,0.182-0.039,0.332-0.115,0.444c-0.079,0.113-0.209,0.219-0.384,0.313c-0.184,0.096-0.398,0.159-0.64,0.188
		c-0.252,0.031-0.602,0.047-1.038,0.047h-0.723V51.184z M243.809,48.844h0.872c0.348,0,0.625,0.008,0.826,0.022
		c0.186,0.014,0.358,0.054,0.515,0.12c0.116,0.051,0.201,0.119,0.252,0.203c0.051,0.086,0.077,0.19,0.077,0.312
		c0,0.162-0.029,0.299-0.086,0.406c-0.055,0.102-0.148,0.185-0.283,0.253c-0.154,0.074-0.302,0.123-0.438,0.146
		c-0.148,0.023-0.379,0.035-0.686,0.035h-1.05V48.844z"/>
</g>
<g>
	<g>
		<path fill="#105998" d="M25.459,39.689c10.96,0,19.845-8.885,19.845-19.844C45.304,8.885,36.419,0,25.459,0H8.456v5.668H25.46
			c7.826,0,14.17,6.344,14.17,14.17c0,7.826-6.344,14.171-14.17,14.171H5.621V8.502h-5.668v31.175L25.459,39.689z"/>
		<polygon fill="#2CB6AF" points="50.969,0 67.974,39.677 74.047,39.677 57.042,0 		"/>
	</g>
	<g>
		<g>
			<polygon points="7.342,49.292 6.171,47.771 7.384,46.199 6.529,45.904 5.58,47.814 6.54,49.714 			"/>
			<polygon points="5.643,46.199 4.788,45.904 3.838,47.814 4.798,49.714 5.601,49.292 4.429,47.771 			"/>
			<polygon points="8.271,45.904 7.321,47.814 8.282,49.714 9.084,49.292 7.912,47.771 9.126,46.199 			"/>
			<rect x="3.627" y="44.954" width="5.784" height="0.687"/>
			<polygon points="6.846,53.124 6.846,50.802 9.252,50.802 9.252,50.116 3.817,50.116 3.817,50.802 6.002,50.802 6.002,53.124 
				3.342,53.124 3.342,53.811 9.644,53.811 9.644,53.124 			"/>
			<path d="M-0.047,52.797l0.485,0.232c0.359-0.824,0.675-1.711,1.015-2.618L0.618,50.21C0.407,51.076,0.217,51.932-0.047,52.797z"
				/>
			<path d="M4.081,51.898c-0.307-0.59-0.623-1.191-0.972-1.763l-0.454,0.222l0.729,1.953L4.081,51.898z"/>
			<path d="M3.141,49.704l0.739-0.327c-0.253-0.561-0.539-1.15-0.803-1.678l-0.434,0.168c0.074,0.253,0.158,0.517,0.223,0.771
				c-0.465,0.021-0.919,0.03-1.362,0.041c0.75-0.918,1.478-1.848,2.175-2.775l-0.708-0.359c-0.327,0.507-0.654,1.014-0.992,1.52
				l-0.687-0.623c0.4-0.56,0.813-1.15,1.214-1.762l-0.739-0.307c-0.264,0.581-0.549,1.15-0.844,1.742
				c-0.117-0.105-0.232-0.201-0.349-0.297l-0.401,0.328c0.443,0.539,0.907,1.088,1.319,1.625c-0.201,0.307-0.412,0.612-0.634,0.908
				c-0.273,0.01-0.56,0.01-0.834,0.01l0.148,0.855c0.485-0.063,0.992-0.137,1.488-0.211V54h0.771v-4.792l0.56-0.095
				C3.046,49.313,3.099,49.514,3.141,49.704z"/>
		</g>
		<path d="M31.72,53.99h0.802v-8.36h1.53l-0.961,2.565c0.739,0.887,1.457,1.709,1.457,2.766c0,0.622-0.253,0.739-0.581,0.771
			c-0.348,0.041-1.013,0.01-1.235,0l0.243,0.781c1.794,0.137,2.375-0.443,2.375-1.468c0-1.129-0.728-2.026-1.551-2.956l1.087-2.291
			c0.2-0.095,0.317-0.232,0.317-0.338c0-0.169-0.603-0.548-0.803-0.645l-0.189,0.232H31.72V53.99z M27.403,48.193l0.834-0.357
			c-0.316-0.539-0.686-1.087-1.023-1.594l-0.485,0.189C26.98,47.021,27.213,47.625,27.403,48.193z M27.456,53.092v-2.617h2.228
			v2.617H27.456z M26.632,53.757h3.874v-3.272c0.116-0.104,0.211-0.231,0.211-0.315c0-0.169-0.528-0.549-0.729-0.644l-0.242,0.285
			h-3.114L26.632,53.757L26.632,53.757z M31.414,48.997v-0.687h-1.891c0.359-0.611,0.707-1.246,1.057-1.889l-0.93-0.189
			c-0.231,0.697-0.485,1.394-0.76,2.08h-3.177v0.686L31.414,48.997L31.414,48.997z M31.213,46.073v-0.687h-2.195v-1.033h-0.845
			v1.033h-2.08v0.687H31.213z"/>
		<g>
			<path d="M40.612,48.659h7.484v-0.644H39.81c0,1.308-0.01,2.228-0.144,3.049c-0.146,0.896-0.437,1.629-0.94,2.375l0.471,0.472
				c0.425-0.501,0.742-1.097,0.973-1.82c0.294-0.923,0.442-2.075,0.442-3.421V48.659z"/>
			<path d="M45.513,45.829c-0.56,0.319-1.048,0.56-1.492,0.733h-0.002h-0.003c-0.708-0.179-2.097-0.511-2.767-0.658l-0.374,0.394
				c0.866,0.208,1.548,0.39,2.21,0.587l0.033,0.01l-0.033,0.01c-0.794,0.256-1.698,0.459-2.76,0.621l0.322,0.425
				c1.195-0.179,2.343-0.439,3.317-0.755l0.003-0.002l0.003,0.002c0.67,0.231,1.504,0.521,2.177,0.799l0.043,0.018l0.013-0.015
				l0.47-0.58l-0.148-0.052c-0.514-0.18-1.095-0.383-1.599-0.524l-0.029-0.009l0.028-0.012c0.513-0.215,1.018-0.471,1.42-0.719
				L46,45.809h1.896v-0.643H43.98v-0.824h-0.822v0.824h-3.705v0.643h6.097L45.513,45.829z"/>
			<path d="M44.761,53.208v-1.192h2.428v-0.645h-2.428v-1.045h2.628v-0.645h-2.628V48.87h-0.823v0.813h-1.75l0.009-0.017
				c0.022-0.054,0.047-0.11,0.069-0.166l0.01-0.024c0.026-0.063,0.055-0.131,0.084-0.209l0.01-0.021
				c0.021-0.055,0.043-0.11,0.064-0.167l-0.854-0.164c-0.255,0.916-0.505,1.628-0.786,2.241l0.447,0.244
				c0.014-0.02,0.026-0.039,0.039-0.06c0.011-0.015,0.02-0.028,0.029-0.043c0.07-0.104,0.138-0.209,0.202-0.312
				c0.049-0.08,0.093-0.152,0.134-0.225c0.059-0.101,0.114-0.203,0.167-0.303c0.008-0.016,0.018-0.031,0.026-0.047
				c0.014-0.026,0.028-0.053,0.042-0.08l0.002-0.004l0.005-0.001h2.047v1.045h-2.407v0.644h2.407v1.193h-3.663v0.645h8.106v-0.645
				L44.761,53.208L44.761,53.208z"/>
		</g>
		<g>
			<path d="M15.252,45.408c-0.57-0.327-1.172-0.665-1.71-0.95l-0.316,0.464c0.548,0.422,1.076,0.865,1.563,1.299L15.252,45.408z"/>
			<path d="M14.967,47.962c-0.58-0.306-1.193-0.612-1.741-0.887L12.93,47.54c0.56,0.411,1.098,0.833,1.604,1.245L14.967,47.962z"/>
			<path d="M14.587,49.904c-0.496,1.214-0.95,2.322-1.542,3.525l0.782,0.475c0.464-1.213,0.929-2.596,1.276-3.768L14.587,49.904z"/>
			<path d="M20.508,50.295h-3.546c0.021-0.222,0.031-0.443,0.031-0.686h-0.803c-0.021,1.826-0.295,2.935-1.414,4L15.23,54
				c0.486-0.4,0.93-0.908,1.246-1.625h4.032v1.615h0.781v-4.381h-0.781V50.295z M20.508,51.741h-3.799
				c0.073-0.253,0.137-0.517,0.179-0.813h3.62V51.741z"/>
			<path d="M21.198,47.048l-0.005-0.009l0.813-0.253l-0.393-0.66c-0.516,0.263-1.041,0.502-1.534,0.726h-0.002h-0.003l-0.477-0.082
				v1.98l-0.006,0.001l-0.446,0.114l0.175,0.627c0.614-0.219,1.219-0.446,1.78-0.66l-0.051-0.459l-0.835,0.211v-1.262l0.005-0.002
				c0.176-0.057,0.358-0.107,0.592-0.17l0.008-0.002l0.002,0.008c0.276,0.839,0.654,1.623,1.156,2.398l0.67-0.435
				C22.014,48.4,21.525,47.704,21.198,47.048z"/>
			<path d="M18.649,46.736c-0.246-0.264-0.513-0.543-0.748-0.787l-0.074-0.077l-0.367,0.233l0.666,0.99L18.649,46.736z"/>
			<path d="M18.948,47.357l0.003-0.002c0.301-0.338,0.692-0.782,1.059-1.236l-0.669-0.258c-0.237,0.443-0.513,0.885-0.799,1.334
				L18.539,47.2H18.31v2.517h0.638V47.357z"/>
			<polygon points="22.337,45.152 19.044,45.152 19.044,44.359 18.215,44.359 18.215,45.152 15.418,45.152 15.418,45.79 
				22.337,45.79 			"/>
			<path d="M16.875,48.461c-0.144,0.307-0.334,0.363-0.733,0.375l0.268,0.626c0.915-0.091,1.233-0.655,1.264-2.229V47.23
				l0.002-0.002c0.082-0.093,0.167-0.188,0.167-0.258c0-0.121-0.467-0.469-0.633-0.55l-0.157,0.22h-1.98v0.616h0.741l-0.003,0.011
				c-0.216,0.901-0.709,1.49-1.209,1.992l0.432,0.391c0.807-0.719,1.272-1.5,1.427-2.387l0.001-0.007h0.575v0.009
				C17.034,47.814,16.983,48.195,16.875,48.461z"/>
		</g>
		<g>
			<path d="M56.011,50.907c0-0.147-0.549-0.538-0.728-0.623l-0.181,0.243h-1.478l0.158-0.803h2.016v-1.688
				c0.075-0.085,0.127-0.159,0.127-0.222c0-0.138-0.496-0.496-0.675-0.592l-0.159,0.2h-0.538c0.538-0.517,1.087-1.118,1.615-1.868
				c0.179-0.063,0.358-0.201,0.358-0.316c0-0.18-0.569-0.612-0.75-0.717l-0.189,0.252h-2.861v0.654h2.576
				c-0.285,0.465-0.623,0.897-1.002,1.299l-1.214-1.002l-0.412,0.411l1.024,1.171c-0.623,0.561-1.31,1.035-1.995,1.437l0.338,0.517
				c0.581-0.337,1.183-0.717,1.784-1.203h1.234v1.035h-1.89l-0.507,2.501l0.729,0.084l0.105-0.517h1.563
				c0,0.686-0.063,1.193-0.211,1.509c-0.168,0.38-0.412,0.464-0.929,0.464c-0.443,0-1.087-0.042-1.31-0.063l0.254,0.75
				c2.175,0.115,2.944,0.021,2.986-2.66C55.937,51.076,56.011,50.98,56.011,50.907z"/>
			<path d="M56.38,49.932c0.291-0.216,0.515-0.494,0.665-0.824c0.144-0.318,0.217-0.678,0.217-1.07v-0.004h0.948v0.785
				c0,0.4,0.061,0.617,0.211,0.746c0.146,0.127,0.394,0.179,0.851,0.179c0.946,0,1.209-0.209,1.221-0.974l-0.667-0.199
				c-0.001,0.39-0.068,0.496-0.532,0.496c-0.313,0-0.363-0.045-0.363-0.321v-0.752l0.002-0.001c0.098-0.074,0.146-0.131,0.146-0.176
				c0-0.125-0.421-0.436-0.649-0.575l-0.146,0.167h-1.729c0,1.167-0.05,1.662-0.578,2.212L56.38,49.932z"/>
			<path d="M58.601,52.174l0.004-0.003c0.38-0.36,0.747-0.769,1.118-1.245l0.001-0.001h0.001c0.186-0.083,0.325-0.217,0.325-0.313
				c0-0.131-0.47-0.567-0.723-0.723l-0.158,0.209h-2.911v0.625H58.9l-0.004,0.008c-0.278,0.396-0.565,0.733-0.877,1.035
				l-0.002,0.002l-0.002-0.002c-0.375-0.304-0.664-0.609-0.886-0.937l-0.458,0.28c0.227,0.418,0.51,0.793,0.842,1.115l0.003,0.002
				l-0.004,0.004c-0.597,0.492-1.221,0.881-1.907,1.19l0.354,0.521c0.755-0.327,1.453-0.752,2.076-1.264l0.002-0.002l0.002,0.002
				c0.646,0.499,1.45,0.896,2.392,1.18l0.47-0.709c-0.892-0.246-1.665-0.572-2.297-0.971L58.601,52.174z"/>
			<path d="M60.792,48.77l0.616-0.617c-0.744-0.377-1.396-0.779-1.99-1.232l-0.004-0.003l0.004-0.003l1.272-1.084l-0.71-0.491
				l-0.981,1.235l-0.003-0.002c-0.248-0.211-0.486-0.442-0.75-0.729l-0.002-0.003l0.003-0.002l0.999-0.916l-0.667-0.49l-0.698,0.973
				L57.876,45.4c-0.284-0.36-0.532-0.726-0.759-1.116l-0.554,0.26c0.422,0.849,0.918,1.549,1.561,2.207
				C58.814,47.456,59.687,48.117,60.792,48.77z"/>
		</g>
		<path d="M74.047,49.625v-0.641h-2.976c0.785-0.404,1.561-0.838,2.247-1.305l-0.63-0.502c-0.948,0.658-1.879,1.256-2.943,1.807
			h-0.541V48.27h1.688v-0.642h-1.688v-0.706h3.634v-1.439c0.122-0.123,0.214-0.246,0.214-0.334c0-0.172-0.534-0.557-0.737-0.652
			l-0.243,0.289h-5.796H65.88h-0.407v2.138h0.407h0.396h2.127v0.706h-2.863v0.641h2.863v0.717h-4.041v0.641h4.056
			c-1.308,0.532-2.638,0.996-4.098,1.454l0.3,0.673c0.708-0.242,1.394-0.499,2.063-0.766v2.968h5.943v-2.929
			c0.118-0.107,0.213-0.235,0.213-0.321c0-0.171-0.534-0.556-0.737-0.651l-0.246,0.288H68.23c0.542-0.235,1.074-0.475,1.6-0.716
			h4.218V49.625z M68.445,46.279v-0.854h1.411v0.854H68.445z M72.037,46.279h-1.411v-0.854h1.411V46.279z M66.276,45.425h1.4v0.854
			h-1.4V45.425z M67.516,53.303v-0.865h4.275v0.865H67.516z M71.791,51.816h-4.275v-0.834h4.275V51.816z"/>
	</g>
</g>
</svg>
